<mxfile host="app.diagrams.net" agent="Mozilla/5.0 (X11; Linux x86_64) AppleWebKit/537.36 (KHTML, like Gecko) Chrome/134.0.0.0 Safari/537.36" version="26.1.0">
  <diagram name="第 1 页" id="h7012NXUUZTx1z2Qncfn">
    <mxGraphModel dx="2074" dy="1147" grid="1" gridSize="10" guides="1" tooltips="1" connect="1" arrows="1" fold="1" page="1" pageScale="1" pageWidth="827" pageHeight="1169" math="0" shadow="0">
      <root>
        <mxCell id="0" />
        <mxCell id="1" parent="0" />
        <mxCell id="u2ZH9oenewuuF8ZrmuHs-2" value="" style="rounded=0;fontSize=15;exitX=0.5;exitY=1;exitDx=0;exitDy=0;entryX=0.5;entryY=0;entryDx=0;entryDy=0;" edge="1" parent="1" source="u2ZH9oenewuuF8ZrmuHs-9" target="u2ZH9oenewuuF8ZrmuHs-8">
          <mxGeometry width="100" height="100" relative="1" as="geometry">
            <mxPoint x="74.5" y="949" as="sourcePoint" />
            <mxPoint x="131" y="853" as="targetPoint" />
          </mxGeometry>
        </mxCell>
        <mxCell id="u2ZH9oenewuuF8ZrmuHs-3" value="&lt;span style=&quot;font-size: 15px&quot;&gt;rdma接收线程监听old rdma id并接收，并在此基础上创建new rdma id&lt;br&gt;&lt;/span&gt;" style="rounded=1;whiteSpace=wrap;html=1;shadow=0;comic=0;labelBackgroundColor=none;strokeWidth=1;fontFamily=Verdana;fontSize=12;align=center;arcSize=50;" vertex="1" parent="1">
          <mxGeometry x="22" y="840" width="261" height="65" as="geometry" />
        </mxCell>
        <mxCell id="u2ZH9oenewuuF8ZrmuHs-4" style="edgeStyle=none;rounded=0;html=1;labelBackgroundColor=none;startArrow=none;startFill=0;startSize=5;endArrow=classicThin;endFill=1;endSize=5;jettySize=auto;orthogonalLoop=1;strokeWidth=1;fontFamily=Verdana;fontSize=12;exitX=0.5;exitY=1;exitDx=0;exitDy=0;entryX=0.5;entryY=0;entryDx=0;entryDy=0;" edge="1" parent="1" source="u2ZH9oenewuuF8ZrmuHs-8" target="u2ZH9oenewuuF8ZrmuHs-3">
          <mxGeometry relative="1" as="geometry">
            <mxPoint x="49" y="909" as="sourcePoint" />
            <mxPoint x="-423.5" y="911" as="targetPoint" />
          </mxGeometry>
        </mxCell>
        <mxCell id="u2ZH9oenewuuF8ZrmuHs-5" value="" style="rounded=0;fontSize=15;entryX=0.5;entryY=0;entryDx=0;entryDy=0;exitX=0.5;exitY=1;exitDx=0;exitDy=0;" edge="1" parent="1" source="u2ZH9oenewuuF8ZrmuHs-3" target="u2ZH9oenewuuF8ZrmuHs-6">
          <mxGeometry width="100" height="100" relative="1" as="geometry">
            <mxPoint x="-460.5" y="410" as="sourcePoint" />
            <mxPoint x="46" y="1011" as="targetPoint" />
          </mxGeometry>
        </mxCell>
        <mxCell id="u2ZH9oenewuuF8ZrmuHs-6" value="&lt;font style=&quot;font-size: 15px&quot;&gt;rdma_id(new)&lt;/font&gt;" style="rounded=0;whiteSpace=wrap;html=1;shadow=0;comic=0;labelBackgroundColor=none;strokeWidth=1;fontFamily=Verdana;fontSize=12;align=center;arcSize=50;" vertex="1" parent="1">
          <mxGeometry x="99" y="940" width="107" height="44" as="geometry" />
        </mxCell>
        <mxCell id="u2ZH9oenewuuF8ZrmuHs-7" value="&lt;b&gt;&lt;i&gt;rdma接收线程&lt;/i&gt;&lt;/b&gt;" style="text;html=1;align=center;verticalAlign=middle;resizable=0;points=[];autosize=1;strokeColor=none;fillColor=none;fontSize=18;" vertex="1" parent="1">
          <mxGeometry x="83" y="621" width="140" height="40" as="geometry" />
        </mxCell>
        <mxCell id="u2ZH9oenewuuF8ZrmuHs-8" value="&lt;span style=&quot;font-size: 15px&quot;&gt;rdma_id(old)&lt;/span&gt;" style="rounded=0;whiteSpace=wrap;html=1;shadow=0;comic=0;labelBackgroundColor=none;strokeWidth=1;fontFamily=Verdana;fontSize=12;align=center;arcSize=50;" vertex="1" parent="1">
          <mxGeometry x="96" y="760" width="113" height="45" as="geometry" />
        </mxCell>
        <mxCell id="u2ZH9oenewuuF8ZrmuHs-9" value="&lt;span style=&quot;font-size: 15px&quot;&gt;创建rdma id，后续进行监听&lt;/span&gt;" style="rounded=1;whiteSpace=wrap;html=1;shadow=0;comic=0;labelBackgroundColor=none;strokeWidth=1;fontFamily=Verdana;fontSize=12;align=center;arcSize=50;" vertex="1" parent="1">
          <mxGeometry x="37" y="672" width="231" height="49" as="geometry" />
        </mxCell>
        <mxCell id="u2ZH9oenewuuF8ZrmuHs-16" value="" style="group" vertex="1" connectable="0" parent="1">
          <mxGeometry x="586.5" y="327" width="252" height="117" as="geometry" />
        </mxCell>
        <mxCell id="u2ZH9oenewuuF8ZrmuHs-20" value="" style="rounded=0;orthogonalLoop=1;jettySize=auto;html=1;fontSize=15;dashed=1;endArrow=none;endFill=0;" edge="1" parent="u2ZH9oenewuuF8ZrmuHs-16" target="u2ZH9oenewuuF8ZrmuHs-18">
          <mxGeometry relative="1" as="geometry" />
        </mxCell>
        <mxCell id="u2ZH9oenewuuF8ZrmuHs-23" value="" style="group" vertex="1" connectable="0" parent="1">
          <mxGeometry x="693.5" y="660" width="226" height="145" as="geometry" />
        </mxCell>
        <mxCell id="u2ZH9oenewuuF8ZrmuHs-24" value="" style="rounded=0;orthogonalLoop=1;jettySize=auto;html=1;fontSize=15;dashed=1;endArrow=none;endFill=0;" edge="1" parent="u2ZH9oenewuuF8ZrmuHs-23" target="u2ZH9oenewuuF8ZrmuHs-26">
          <mxGeometry relative="1" as="geometry" />
        </mxCell>
        <mxCell id="u2ZH9oenewuuF8ZrmuHs-25" style="edgeStyle=none;rounded=0;orthogonalLoop=1;jettySize=auto;html=1;exitX=0.5;exitY=0;exitDx=0;exitDy=0;exitPerimeter=0;fontSize=15;endArrow=classic;endFill=1;" edge="1" parent="u2ZH9oenewuuF8ZrmuHs-23">
          <mxGeometry relative="1" as="geometry">
            <mxPoint x="196" y="55.5" as="sourcePoint" />
            <mxPoint x="196" y="55.5" as="targetPoint" />
          </mxGeometry>
        </mxCell>
        <mxCell id="u2ZH9oenewuuF8ZrmuHs-26" value="&lt;font style=&quot;font-size: 15px&quot;&gt;rdma_id&lt;/font&gt;" style="rounded=0;whiteSpace=wrap;html=1;shadow=0;comic=0;labelBackgroundColor=none;strokeWidth=1;fontFamily=Verdana;fontSize=12;align=center;arcSize=50;" vertex="1" parent="u2ZH9oenewuuF8ZrmuHs-23">
          <mxGeometry x="44.5" y="101" width="113" height="44" as="geometry" />
        </mxCell>
        <mxCell id="u2ZH9oenewuuF8ZrmuHs-32" value="&lt;b&gt;&lt;i&gt;rdma发送线程&lt;/i&gt;&lt;/b&gt;" style="text;html=1;align=center;verticalAlign=middle;resizable=0;points=[];autosize=1;strokeColor=none;fillColor=none;fontSize=18;" vertex="1" parent="1">
          <mxGeometry x="725" y="621" width="140" height="40" as="geometry" />
        </mxCell>
        <mxCell id="u2ZH9oenewuuF8ZrmuHs-33" style="edgeStyle=none;rounded=0;html=1;labelBackgroundColor=none;startArrow=none;startFill=0;startSize=5;endArrow=classicThin;endFill=1;endSize=5;jettySize=auto;orthogonalLoop=1;strokeWidth=1;fontFamily=Verdana;fontSize=12;exitX=0.5;exitY=1;exitDx=0;exitDy=0;entryX=0.5;entryY=0;entryDx=0;entryDy=0;" edge="1" parent="1" source="u2ZH9oenewuuF8ZrmuHs-26" target="u2ZH9oenewuuF8ZrmuHs-36">
          <mxGeometry relative="1" as="geometry">
            <mxPoint x="-208.9354838709678" y="842" as="sourcePoint" />
            <mxPoint x="-198.5" y="891" as="targetPoint" />
          </mxGeometry>
        </mxCell>
        <mxCell id="u2ZH9oenewuuF8ZrmuHs-34" value="&lt;span style=&quot;font-size: 15px&quot;&gt;rdma_id(connected)&lt;/span&gt;" style="rounded=0;whiteSpace=wrap;html=1;shadow=0;comic=0;labelBackgroundColor=none;strokeWidth=1;fontFamily=Verdana;fontSize=12;align=center;arcSize=50;" vertex="1" parent="1">
          <mxGeometry x="722.5" y="938" width="144" height="46" as="geometry" />
        </mxCell>
        <mxCell id="u2ZH9oenewuuF8ZrmuHs-35" style="edgeStyle=none;rounded=0;html=1;labelBackgroundColor=none;startArrow=none;startFill=0;startSize=5;endArrow=classicThin;endFill=1;endSize=5;jettySize=auto;orthogonalLoop=1;strokeWidth=1;fontFamily=Verdana;fontSize=12;exitX=0.5;exitY=1;exitDx=0;exitDy=0;entryX=0.5;entryY=0;entryDx=0;entryDy=0;" edge="1" parent="1" source="u2ZH9oenewuuF8ZrmuHs-36" target="u2ZH9oenewuuF8ZrmuHs-34">
          <mxGeometry relative="1" as="geometry">
            <mxPoint x="-153.5" y="885" as="sourcePoint" />
            <mxPoint x="-153.5" y="912" as="targetPoint" />
          </mxGeometry>
        </mxCell>
        <mxCell id="u2ZH9oenewuuF8ZrmuHs-36" value="&lt;span style=&quot;font-size: 15px&quot;&gt;与所有序号大与自己的主机建立连接&lt;/span&gt;" style="rounded=1;whiteSpace=wrap;html=1;shadow=0;comic=0;labelBackgroundColor=none;strokeWidth=1;fontFamily=Verdana;fontSize=12;align=center;arcSize=50;" vertex="1" parent="1">
          <mxGeometry x="681.5" y="840" width="226" height="60" as="geometry" />
        </mxCell>
        <mxCell id="u2ZH9oenewuuF8ZrmuHs-37" value="&lt;span style=&quot;font-size: 15px&quot;&gt;合并所有的接收与发送线程，并对RDMA需要用的的内存区域(如outqueue与inqueue)进行注册&lt;/span&gt;" style="rounded=1;whiteSpace=wrap;html=1;shadow=0;comic=0;labelBackgroundColor=none;strokeWidth=1;fontFamily=Verdana;fontSize=12;align=center;arcSize=50;" vertex="1" parent="1">
          <mxGeometry x="350" y="840" width="258" height="79" as="geometry" />
        </mxCell>
        <mxCell id="u2ZH9oenewuuF8ZrmuHs-38" value="&lt;span style=&quot;font-size: 15px&quot;&gt;memory&lt;br&gt;(已注册)&lt;/span&gt;" style="rounded=0;whiteSpace=wrap;html=1;shadow=0;comic=0;labelBackgroundColor=none;strokeWidth=1;fontFamily=Verdana;fontSize=12;align=center;arcSize=50;" vertex="1" parent="1">
          <mxGeometry x="419" y="960" width="121" height="54" as="geometry" />
        </mxCell>
        <mxCell id="u2ZH9oenewuuF8ZrmuHs-39" value="" style="rounded=0;fontSize=15;endArrow=classic;endFill=1;exitX=0.5;exitY=1;exitDx=0;exitDy=0;entryX=0.5;entryY=0;entryDx=0;entryDy=0;" edge="1" parent="1" source="u2ZH9oenewuuF8ZrmuHs-38" target="u2ZH9oenewuuF8ZrmuHs-41">
          <mxGeometry width="100" height="100" relative="1" as="geometry">
            <mxPoint x="24.5" y="783" as="sourcePoint" />
            <mxPoint x="124.5" y="683" as="targetPoint" />
          </mxGeometry>
        </mxCell>
        <mxCell id="u2ZH9oenewuuF8ZrmuHs-40" value="" style="rounded=0;fontSize=15;entryX=0.5;entryY=0;entryDx=0;entryDy=0;exitX=0.5;exitY=1;exitDx=0;exitDy=0;" edge="1" parent="1" source="u2ZH9oenewuuF8ZrmuHs-37" target="u2ZH9oenewuuF8ZrmuHs-38">
          <mxGeometry width="100" height="100" relative="1" as="geometry">
            <mxPoint x="-117" y="1047" as="sourcePoint" />
            <mxPoint x="-71" y="1096" as="targetPoint" />
          </mxGeometry>
        </mxCell>
        <mxCell id="u2ZH9oenewuuF8ZrmuHs-41" value="&lt;span style=&quot;font-size: 15px&quot;&gt;开始进行RDMA通信，创建客户端发送，与服务端监听与处理线程&lt;/span&gt;" style="rounded=1;whiteSpace=wrap;html=1;shadow=0;comic=0;labelBackgroundColor=none;strokeWidth=1;fontFamily=Verdana;fontSize=12;align=center;arcSize=50;" vertex="1" parent="1">
          <mxGeometry x="354.5" y="1050" width="249" height="58" as="geometry" />
        </mxCell>
        <mxCell id="u2ZH9oenewuuF8ZrmuHs-42" value="&lt;span style=&quot;font-size: 15px&quot;&gt;listen,client,&lt;br&gt;server thread&lt;/span&gt;" style="rounded=0;whiteSpace=wrap;html=1;shadow=0;comic=0;labelBackgroundColor=none;strokeWidth=1;fontFamily=Verdana;fontSize=12;align=center;arcSize=50;" vertex="1" parent="1">
          <mxGeometry x="416.5" y="1140" width="125" height="52" as="geometry" />
        </mxCell>
        <mxCell id="u2ZH9oenewuuF8ZrmuHs-43" value="" style="rounded=0;fontSize=15;entryX=0.5;entryY=0;entryDx=0;entryDy=0;exitX=0.5;exitY=1;exitDx=0;exitDy=0;" edge="1" parent="1" source="u2ZH9oenewuuF8ZrmuHs-41" target="u2ZH9oenewuuF8ZrmuHs-42">
          <mxGeometry width="100" height="100" relative="1" as="geometry">
            <mxPoint x="-103" y="1194" as="sourcePoint" />
            <mxPoint x="-57" y="1243" as="targetPoint" />
          </mxGeometry>
        </mxCell>
        <mxCell id="u2ZH9oenewuuF8ZrmuHs-44" value="" style="shape=mxgraph.bpmn.shape;html=1;verticalLabelPosition=bottom;labelBackgroundColor=#ffffff;verticalAlign=top;perimeter=ellipsePerimeter;outline=end;symbol=terminate;rounded=0;shadow=0;comic=0;strokeWidth=1;fontFamily=Verdana;fontSize=12;align=center;" vertex="1" parent="1">
          <mxGeometry x="459" y="1220" width="40" height="40" as="geometry" />
        </mxCell>
        <mxCell id="u2ZH9oenewuuF8ZrmuHs-45" value="" style="rounded=0;fontSize=15;entryX=0.5;entryY=0;entryDx=0;entryDy=0;exitX=0.5;exitY=1;exitDx=0;exitDy=0;" edge="1" parent="1" source="u2ZH9oenewuuF8ZrmuHs-42" target="u2ZH9oenewuuF8ZrmuHs-44">
          <mxGeometry width="100" height="100" relative="1" as="geometry">
            <mxPoint x="-72" y="1202" as="sourcePoint" />
            <mxPoint x="-73.5" y="1244" as="targetPoint" />
          </mxGeometry>
        </mxCell>
        <mxCell id="u2ZH9oenewuuF8ZrmuHs-15" value="" style="ellipse;whiteSpace=wrap;html=1;rounded=0;shadow=0;comic=0;labelBackgroundColor=none;strokeWidth=1;fillColor=#000000;fontFamily=Verdana;fontSize=12;align=center;" vertex="1" parent="1">
          <mxGeometry x="454" y="327" width="40" height="40" as="geometry" />
        </mxCell>
        <mxCell id="u2ZH9oenewuuF8ZrmuHs-17" value="&lt;span style=&quot;font-size: 15px&quot;&gt;初始化RDMA通信的接收与发送队列&lt;/span&gt;" style="rounded=1;whiteSpace=wrap;html=1;shadow=0;comic=0;labelBackgroundColor=none;strokeWidth=1;fontFamily=Verdana;fontSize=12;align=center;arcSize=50;" vertex="1" parent="1">
          <mxGeometry x="390" y="537" width="166" height="61" as="geometry" />
        </mxCell>
        <mxCell id="u2ZH9oenewuuF8ZrmuHs-18" value="&lt;span style=&quot;font-size: 15px&quot;&gt;发送队列(outqueue)&lt;br&gt;接收队列(inqueue)&lt;br&gt;&lt;/span&gt;" style="rounded=0;whiteSpace=wrap;html=1;shadow=0;comic=0;labelBackgroundColor=none;strokeWidth=1;fontFamily=Verdana;fontSize=12;align=center;arcSize=50;" vertex="1" parent="1">
          <mxGeometry x="380" y="628" width="186" height="59" as="geometry" />
        </mxCell>
        <mxCell id="u2ZH9oenewuuF8ZrmuHs-19" value="" style="rounded=0;fontSize=15;entryX=0.5;entryY=0;entryDx=0;entryDy=0;exitX=0.5;exitY=1;exitDx=0;exitDy=0;" edge="1" parent="1" source="u2ZH9oenewuuF8ZrmuHs-17" target="u2ZH9oenewuuF8ZrmuHs-18">
          <mxGeometry width="100" height="100" relative="1" as="geometry">
            <mxPoint x="451" y="698" as="sourcePoint" />
            <mxPoint x="497" y="747" as="targetPoint" />
          </mxGeometry>
        </mxCell>
        <mxCell id="u2ZH9oenewuuF8ZrmuHs-21" value="&lt;span style=&quot;font-size: 15px&quot;&gt;分别创建多个rdma接收连接与建立连接线程&lt;/span&gt;" style="rounded=1;whiteSpace=wrap;html=1;shadow=0;comic=0;labelBackgroundColor=none;strokeWidth=1;fontFamily=Verdana;fontSize=12;align=center;arcSize=50;" vertex="1" parent="1">
          <mxGeometry x="381.5" y="720" width="183" height="60" as="geometry" />
        </mxCell>
        <mxCell id="u2ZH9oenewuuF8ZrmuHs-22" value="" style="rounded=0;fontSize=15;endArrow=classic;endFill=1;exitX=0.5;exitY=1;exitDx=0;exitDy=0;entryX=0.5;entryY=0;entryDx=0;entryDy=0;" edge="1" parent="1" source="u2ZH9oenewuuF8ZrmuHs-18" target="u2ZH9oenewuuF8ZrmuHs-21">
          <mxGeometry width="100" height="100" relative="1" as="geometry">
            <mxPoint x="29.5" y="764" as="sourcePoint" />
            <mxPoint x="129.5" y="664" as="targetPoint" />
          </mxGeometry>
        </mxCell>
        <mxCell id="u2ZH9oenewuuF8ZrmuHs-27" value="" style="rounded=0;fontSize=15;endArrow=classic;endFill=1;exitX=0.5;exitY=1;exitDx=0;exitDy=0;entryX=0.5;entryY=0;entryDx=0;entryDy=0;" edge="1" parent="1" source="u2ZH9oenewuuF8ZrmuHs-15" target="u2ZH9oenewuuF8ZrmuHs-28">
          <mxGeometry width="100" height="100" relative="1" as="geometry">
            <mxPoint x="29.5" y="780" as="sourcePoint" />
            <mxPoint x="129.5" y="680" as="targetPoint" />
          </mxGeometry>
        </mxCell>
        <mxCell id="u2ZH9oenewuuF8ZrmuHs-28" value="&lt;span style=&quot;font-size: 15px&quot;&gt;查询设备号&lt;br&gt;打开IB网卡设备&lt;/span&gt;" style="rounded=1;whiteSpace=wrap;html=1;shadow=0;comic=0;labelBackgroundColor=none;strokeWidth=1;fontFamily=Verdana;fontSize=12;align=center;arcSize=50;" vertex="1" parent="1">
          <mxGeometry x="391" y="389" width="166" height="57" as="geometry" />
        </mxCell>
        <mxCell id="u2ZH9oenewuuF8ZrmuHs-29" value="&lt;font style=&quot;font-size: 18px&quot;&gt;ib device&lt;/font&gt;" style="rounded=0;whiteSpace=wrap;html=1;shadow=0;comic=0;labelBackgroundColor=none;strokeWidth=1;fontFamily=Verdana;fontSize=12;align=center;arcSize=50;" vertex="1" parent="1">
          <mxGeometry x="418" y="464" width="111" height="44" as="geometry" />
        </mxCell>
        <mxCell id="u2ZH9oenewuuF8ZrmuHs-30" value="" style="rounded=0;fontSize=15;entryX=0.5;entryY=0;entryDx=0;entryDy=0;exitX=0.5;exitY=1;exitDx=0;exitDy=0;" edge="1" parent="1" source="u2ZH9oenewuuF8ZrmuHs-29" target="u2ZH9oenewuuF8ZrmuHs-17">
          <mxGeometry width="100" height="100" relative="1" as="geometry">
            <mxPoint x="-145.5" y="496" as="sourcePoint" />
            <mxPoint x="-99.5" y="545" as="targetPoint" />
          </mxGeometry>
        </mxCell>
        <mxCell id="u2ZH9oenewuuF8ZrmuHs-31" value="" style="rounded=0;fontSize=15;endArrow=classic;endFill=1;exitX=0.5;exitY=1;exitDx=0;exitDy=0;entryX=0.5;entryY=0;entryDx=0;entryDy=0;" edge="1" parent="1" source="u2ZH9oenewuuF8ZrmuHs-28" target="u2ZH9oenewuuF8ZrmuHs-29">
          <mxGeometry width="100" height="100" relative="1" as="geometry">
            <mxPoint x="-77" y="347" as="sourcePoint" />
            <mxPoint x="-77" y="369" as="targetPoint" />
          </mxGeometry>
        </mxCell>
        <mxCell id="u2ZH9oenewuuF8ZrmuHs-51" value="" style="edgeStyle=elbowEdgeStyle;elbow=horizontal;endArrow=classic;html=1;curved=0;rounded=0;endSize=8;startSize=8;exitX=0;exitY=0.5;exitDx=0;exitDy=0;entryX=1;entryY=0.5;entryDx=0;entryDy=0;" edge="1" parent="1" target="u2ZH9oenewuuF8ZrmuHs-9">
          <mxGeometry width="50" height="50" relative="1" as="geometry">
            <mxPoint x="381.5" y="747" as="sourcePoint" />
            <mxPoint x="170" y="537" as="targetPoint" />
            <Array as="points">
              <mxPoint x="330" y="720" />
            </Array>
          </mxGeometry>
        </mxCell>
        <mxCell id="u2ZH9oenewuuF8ZrmuHs-52" value="" style="edgeStyle=elbowEdgeStyle;elbow=horizontal;endArrow=classic;html=1;curved=0;rounded=0;endSize=8;startSize=8;exitX=1;exitY=0.5;exitDx=0;exitDy=0;entryX=0;entryY=0.5;entryDx=0;entryDy=0;" edge="1" parent="1" source="u2ZH9oenewuuF8ZrmuHs-21" target="u2ZH9oenewuuF8ZrmuHs-46">
          <mxGeometry width="50" height="50" relative="1" as="geometry">
            <mxPoint x="391.5" y="757" as="sourcePoint" />
            <mxPoint x="266" y="707" as="targetPoint" />
            <Array as="points">
              <mxPoint x="620" y="720" />
            </Array>
          </mxGeometry>
        </mxCell>
        <mxCell id="u2ZH9oenewuuF8ZrmuHs-46" value="&lt;span style=&quot;font-size: 15px&quot;&gt;创建rdma id，&lt;/span&gt;&lt;span style=&quot;font-size: 15px&quot;&gt;后续进行连接&lt;/span&gt;" style="rounded=1;whiteSpace=wrap;html=1;shadow=0;comic=0;labelBackgroundColor=none;strokeWidth=1;fontFamily=Verdana;fontSize=12;align=center;arcSize=50;" vertex="1" parent="1">
          <mxGeometry x="674.5" y="674" width="240" height="46" as="geometry" />
        </mxCell>
        <mxCell id="u2ZH9oenewuuF8ZrmuHs-47" style="edgeStyle=none;rounded=0;html=1;labelBackgroundColor=none;startArrow=none;startFill=0;startSize=5;endArrow=classicThin;endFill=1;endSize=5;jettySize=auto;orthogonalLoop=1;strokeWidth=1;fontFamily=Verdana;fontSize=12;entryX=0.5;entryY=0;entryDx=0;entryDy=0;exitX=0.5;exitY=1;exitDx=0;exitDy=0;" edge="1" parent="1" source="u2ZH9oenewuuF8ZrmuHs-46" target="u2ZH9oenewuuF8ZrmuHs-26">
          <mxGeometry relative="1" as="geometry">
            <mxPoint x="430" y="921" as="sourcePoint" />
            <mxPoint x="396" y="934" as="targetPoint" />
          </mxGeometry>
        </mxCell>
        <mxCell id="u2ZH9oenewuuF8ZrmuHs-53" value="" style="edgeStyle=elbowEdgeStyle;elbow=horizontal;endArrow=classic;html=1;curved=0;rounded=0;endSize=8;startSize=8;exitX=1;exitY=0.5;exitDx=0;exitDy=0;entryX=0;entryY=0.5;entryDx=0;entryDy=0;" edge="1" parent="1" source="u2ZH9oenewuuF8ZrmuHs-6" target="u2ZH9oenewuuF8ZrmuHs-37">
          <mxGeometry width="50" height="50" relative="1" as="geometry">
            <mxPoint x="391.5" y="757" as="sourcePoint" />
            <mxPoint x="380" y="730" as="targetPoint" />
            <Array as="points">
              <mxPoint x="300" y="920" />
            </Array>
          </mxGeometry>
        </mxCell>
        <mxCell id="u2ZH9oenewuuF8ZrmuHs-56" value="" style="edgeStyle=elbowEdgeStyle;elbow=horizontal;endArrow=classic;html=1;curved=0;rounded=0;endSize=8;startSize=8;exitX=0;exitY=0.5;exitDx=0;exitDy=0;entryX=1;entryY=0.5;entryDx=0;entryDy=0;" edge="1" parent="1" source="u2ZH9oenewuuF8ZrmuHs-34" target="u2ZH9oenewuuF8ZrmuHs-37">
          <mxGeometry width="50" height="50" relative="1" as="geometry">
            <mxPoint x="575" y="760" as="sourcePoint" />
            <mxPoint x="685" y="707" as="targetPoint" />
            <Array as="points">
              <mxPoint x="660" y="840" />
            </Array>
          </mxGeometry>
        </mxCell>
      </root>
    </mxGraphModel>
  </diagram>
</mxfile>
